<svg width="36" height="36" viewBox="0 0 36 36" fill="none" xmlns="http://www.w3.org/2000/svg">
<g id="icon/Face" clip-path="url(#clip0_204_4898)">
<path id="Vector" d="M13.5 17.625C12.465 17.625 11.625 18.465 11.625 19.5C11.625 20.535 12.465 21.375 13.5 21.375C14.535 21.375 15.375 20.535 15.375 19.5C15.375 18.465 14.535 17.625 13.5 17.625ZM23.25 18C22.215 18 21 18.465 21 19.5C21 20.535 22.215 19.5 23.25 19.5C24.285 19.5 25.6875 20.535 25.6875 19.5C25.6875 18.465 24.285 18 23.25 18ZM18 3C9.72 3 3 9.72 3 18C3 26.28 9.72 33 18 33C26.28 33 33 26.28 33 18C33 9.72 26.28 3 18 3ZM18 30C11.385 30 6 24.615 6 18C6 17.565 6.03 17.13 6.075 16.71C9.615 15.135 12.42 12.24 13.89 8.655C16.605 12.495 21.075 15 26.13 15C27.3 15 28.425 14.865 29.505 14.61C29.82 15.675 30 16.815 30 18C30 24.615 24.615 30 18 30Z" fill="#895D06"/>
</g>
<defs>
<clipPath id="clip0_204_4898">
<rect width="36" height="36" fill="white"/>
</clipPath>
</defs>
</svg>
