<svg width="36" height="36" viewBox="0 0 36 36" fill="none" xmlns="http://www.w3.org/2000/svg">
<g id="Wb sunny">
<path id="Vector" d="M8.59014 7.385L8.00514 6.8C7.42014 6.215 6.47514 6.23 5.90514 6.8L5.89014 6.815C5.30514 7.4 5.30514 8.345 5.89014 8.915L6.47514 9.5C7.06014 10.085 7.99014 10.085 8.57514 9.5L8.59014 9.485C9.17514 8.915 9.17514 7.955 8.59014 7.385ZM4.03014 16.925H2.50014C1.67514 16.925 1.01514 17.585 1.01514 18.41V18.425C1.01514 19.25 1.67514 19.91 2.50014 19.91H4.01514C4.85514 19.925 5.51514 19.265 5.51514 18.44V18.425C5.51514 17.585 4.85514 16.925 4.03014 16.925ZM17.5301 2H17.5151C16.6751 2 16.0151 2.66 16.0151 3.485V4.925C16.0151 5.75 16.6751 6.41 17.5001 6.41H17.5151C18.3551 6.425 19.0151 5.765 19.0151 4.94V3.485C19.0151 2.66 18.3551 2 17.5301 2ZM29.1401 6.815C28.5551 6.23 27.6101 6.23 27.0251 6.8L26.4401 7.385C25.8551 7.97 25.8551 8.915 26.4401 9.485L26.4551 9.5C27.0401 10.085 27.9851 10.085 28.5551 9.5L29.1401 8.915C29.7251 8.33 29.7251 7.4 29.1401 6.815ZM26.4251 29.465L27.0101 30.05C27.5951 30.635 28.5401 30.635 29.1251 30.05C29.7101 29.465 29.7101 28.52 29.1251 27.935L28.5401 27.35C27.9551 26.765 27.0101 26.78 26.4401 27.35C25.8401 27.95 25.8401 28.88 26.4251 29.465ZM29.5151 18.41V18.425C29.5151 19.25 30.1751 19.91 31.0001 19.91H32.5151C33.3401 19.91 34.0001 19.25 34.0001 18.425V18.41C34.0001 17.585 33.3401 16.925 32.5151 16.925H31.0001C30.1751 16.925 29.5151 17.585 29.5151 18.41ZM17.5151 9.425C12.5501 9.425 8.51514 13.46 8.51514 18.425C8.51514 23.39 12.5501 27.425 17.5151 27.425C22.4801 27.425 26.5151 23.39 26.5151 18.425C26.5151 13.46 22.4801 9.425 17.5151 9.425ZM17.5001 34.85H17.5151C18.3401 34.85 19.0001 34.19 19.0001 33.365V31.925C19.0001 31.1 18.3401 30.44 17.5151 30.44H17.5001C16.6751 30.44 16.0151 31.1 16.0151 31.925V33.365C16.0151 34.19 16.6751 34.85 17.5001 34.85ZM5.89014 30.035C6.47514 30.62 7.42014 30.62 8.00514 30.035L8.59014 29.45C9.17514 28.865 9.16014 27.92 8.59014 27.35L8.57514 27.335C7.99014 26.75 7.04514 26.75 6.46014 27.335L5.87514 27.92C5.30514 28.52 5.30514 29.45 5.89014 30.035Z" fill="#895D06"/>
</g>
</svg>
